<?xml version="1.0" encoding="UTF-8" ?>
<!DOCTYPE svg PUBLIC "-//W3C//DTD SVG 1.1//EN" "http://www.w3.org/Graphics/SVG/1.1/DTD/svg11.dtd">
<svg width="340pt" height="119pt" viewBox="0 0 340 119" version="1.1" xmlns="http://www.w3.org/2000/svg">
<g id="#ffffffff">
<path fill="#ffffff" opacity="1.00" d=" M 58.58 62.66 C 72.85 62.64 87.13 62.64 101.41 62.66 C 101.43 72.11 101.41 81.55 101.42 91.00 C 87.13 91.00 72.85 91.01 58.57 91.00 C 58.57 81.55 58.57 72.11 58.58 62.66 Z" />
<path fill="#ffffff" opacity="1.00" d=" M 73.43 98.05 C 77.58 95.84 82.50 97.35 87.00 97.00 C 87.00 97.43 87.00 98.29 86.99 98.73 C 82.48 98.59 77.84 99.33 73.43 98.05 Z" />
</g>
<g id="#224c8dff">
<path fill="#224c8d" opacity="1.00" d=" M 15.38 24.44 C 23.47 15.86 35.31 11.03 47.10 11.45 C 57.63 11.73 67.98 16.12 75.43 23.58 C 84.27 32.05 88.76 44.58 87.79 56.75 C 93.95 56.72 100.10 56.73 106.26 56.75 C 106.63 57.17 107.36 58.03 107.72 58.45 C 107.70 70.28 107.87 82.12 107.65 93.95 C 107.67 97.52 103.43 96.97 101.00 97.10 C 101.00 97.51 101.00 98.34 101.00 98.75 C 104.70 98.75 108.41 98.73 112.12 98.82 C 114.49 102.28 112.39 107.41 108.10 107.74 C 90.05 108.00 71.99 107.75 53.94 107.86 C 51.41 108.05 48.48 107.20 47.45 104.65 C 46.44 102.74 47.22 100.65 47.88 98.78 C 52.00 98.75 56.11 98.76 60.22 98.75 C 60.20 98.30 60.17 97.41 60.15 96.96 C 58.09 96.96 56.04 96.95 53.98 96.92 C 53.37 96.24 52.76 95.56 52.14 94.88 C 42.43 95.94 32.33 94.15 23.96 88.98 C 12.18 81.90 4.23 68.75 3.75 54.98 C 3.23 43.78 7.60 32.49 15.38 24.44 M 51.86 13.97 C 58.86 18.57 62.30 26.46 64.90 34.08 C 67.96 35.85 71.59 36.42 74.69 38.17 C 78.87 40.12 82.21 43.38 85.31 46.73 C 83.78 40.80 81.73 34.90 77.98 29.99 C 71.84 21.40 62.13 15.92 51.86 13.97 M 23.54 20.52 C 14.50 26.52 8.47 36.33 6.36 46.89 C 11.33 40.40 18.86 36.54 26.65 34.56 C 29.23 26.83 32.60 18.78 39.62 14.04 C 33.96 15.31 28.34 17.17 23.54 20.52 M 29.35 33.75 C 34.46 32.73 39.65 32.26 44.83 31.86 C 44.80 26.10 44.86 20.35 44.78 14.59 C 36.09 17.01 32.01 25.93 29.35 33.75 M 47.05 14.59 C 47.00 20.35 47.02 26.11 46.99 31.87 C 52.13 32.30 57.28 32.71 62.33 33.81 C 59.67 25.99 55.67 17.17 47.05 14.59 M 28.63 36.47 C 27.65 41.61 26.82 46.80 26.89 52.05 C 32.86 52.07 38.83 52.07 44.80 52.05 C 44.84 46.08 44.82 40.11 44.79 34.14 C 39.38 34.74 33.88 34.93 28.63 36.47 M 47.06 34.17 C 46.96 40.13 47.04 46.09 47.03 52.05 C 52.97 52.07 58.92 52.07 64.87 52.05 C 64.72 46.75 64.11 41.48 62.94 36.31 C 57.72 35.08 52.37 34.68 47.06 34.17 M 7.10 52.01 C 12.90 52.10 18.70 52.06 24.51 52.05 C 24.61 47.00 25.25 42.00 26.10 37.03 C 18.34 39.50 9.55 43.49 7.10 52.01 M 65.50 36.96 C 66.48 41.93 67.09 46.98 67.06 52.05 C 72.82 52.06 78.59 52.10 84.35 52.03 C 82.44 43.27 73.08 39.54 65.50 36.96 M 7.11 54.43 C 9.37 63.02 18.31 67.10 26.08 69.45 C 25.29 64.47 24.59 59.46 24.52 54.40 C 18.72 54.41 12.92 54.37 7.11 54.43 M 26.90 54.42 C 26.77 59.61 27.68 64.72 28.51 69.81 C 33.68 71.85 39.34 71.92 44.82 72.26 C 44.81 66.31 44.84 60.36 44.81 54.40 C 38.84 54.40 32.87 54.39 26.90 54.42 M 47.03 54.39 C 47.02 60.34 46.99 66.28 47.05 72.22 C 48.83 72.16 50.61 72.10 52.39 72.04 C 52.90 67.13 51.20 61.66 53.28 57.10 C 57.08 56.36 60.99 56.83 64.83 56.70 C 64.82 56.13 64.79 54.99 64.78 54.42 C 58.86 54.38 52.95 54.41 47.03 54.39 M 66.97 54.42 C 66.96 54.99 66.96 56.15 66.96 56.72 C 72.61 56.74 78.27 56.76 83.92 56.70 C 83.96 56.13 84.04 54.98 84.08 54.41 C 78.38 54.40 72.67 54.39 66.97 54.42 M 54.80 59.05 C 54.78 70.94 54.76 82.83 54.81 94.72 C 71.65 94.72 88.49 94.72 105.33 94.71 C 105.30 82.83 105.35 70.94 105.30 59.06 C 88.47 59.06 71.63 59.03 54.80 59.05 M 6.39 59.60 C 7.77 65.57 9.86 71.48 13.60 76.42 C 19.69 85.05 29.43 90.52 39.68 92.57 C 32.76 87.82 29.18 79.93 26.78 72.17 C 19.00 69.92 11.35 66.22 6.39 59.60 M 29.43 72.86 C 32.06 80.59 36.00 89.67 44.76 91.82 C 44.86 86.07 44.81 80.33 44.82 74.59 C 39.66 74.32 34.52 73.75 29.43 72.86 M 47.02 74.58 C 46.99 80.34 46.92 86.10 47.10 91.85 C 48.88 91.06 50.66 90.24 52.43 89.40 C 52.35 84.34 52.41 79.27 52.34 74.21 C 50.57 74.34 48.80 74.46 47.02 74.58 M 62.02 98.78 C 65.35 98.99 68.68 99.06 72.01 98.98 C 72.01 98.48 72.01 97.49 72.01 96.99 C 68.89 96.98 65.78 96.98 62.67 96.99 C 62.51 97.44 62.18 98.33 62.02 98.78 M 73.43 98.05 C 77.84 99.33 82.48 98.59 86.99 98.73 C 87.00 98.29 87.00 97.43 87.00 97.00 C 82.50 97.35 77.58 95.84 73.43 98.05 M 88.58 97.04 C 88.79 97.46 89.22 98.29 89.43 98.71 C 92.44 99.22 95.55 99.22 98.57 98.76 C 98.78 98.33 99.21 97.47 99.42 97.04 C 95.81 96.96 92.19 96.96 88.58 97.04 M 48.68 101.23 C 49.45 102.68 49.63 104.87 51.44 105.44 C 53.25 105.88 55.14 105.76 56.99 105.79 C 73.67 105.65 90.37 105.87 107.05 105.70 C 109.69 105.88 110.87 103.32 110.83 101.05 C 90.12 101.23 69.40 100.89 48.68 101.23 Z" />
<path fill="#224c8d" opacity="1.00" d=" M 213.87 37.88 C 217.06 35.47 221.29 36.09 225.03 35.96 C 228.95 36.03 233.55 35.51 236.59 38.55 C 239.69 41.86 238.68 46.74 238.86 50.85 C 235.64 50.85 232.42 50.84 229.20 50.86 C 229.24 48.27 229.08 45.68 228.56 43.14 C 226.21 43.17 223.77 42.78 221.51 43.56 C 220.96 55.42 221.44 67.33 221.28 79.22 C 223.70 79.36 226.12 79.49 228.54 79.52 C 229.27 76.54 229.25 73.47 229.16 70.43 C 232.38 70.44 235.61 70.44 238.84 70.42 C 238.59 74.74 239.77 79.58 237.29 83.45 C 235.06 86.76 230.61 86.89 227.01 86.88 C 222.83 86.75 218.34 87.44 214.49 85.39 C 211.61 83.72 210.69 80.13 210.71 77.01 C 210.71 66.67 210.72 56.32 210.71 45.98 C 210.71 43.05 211.36 39.72 213.87 37.88 Z" />
<path fill="#224c8d" opacity="1.00" d=" M 276.03 37.90 C 279.13 35.50 283.29 36.08 286.96 35.97 C 290.95 36.10 295.54 35.38 298.86 38.12 C 301.44 40.26 301.66 43.86 301.70 46.96 C 301.74 59.97 301.69 72.98 301.71 85.99 C 298.24 86.00 294.76 86.00 291.29 86.00 C 291.29 80.52 291.29 75.05 291.29 69.58 C 288.67 69.57 286.05 69.56 283.44 69.56 C 283.42 75.04 283.43 80.52 283.43 86.00 C 279.89 86.01 276.35 86.01 272.81 85.94 C 272.82 72.95 272.82 59.96 272.80 46.97 C 272.86 43.77 273.19 39.94 276.03 37.90 M 283.45 43.49 C 283.42 49.37 283.43 55.26 283.43 61.15 C 286.05 61.15 288.66 61.15 291.29 61.15 C 291.29 55.31 291.30 49.47 291.27 43.63 C 288.70 42.94 286.04 42.98 283.45 43.49 Z" />
<path fill="#224c8d" opacity="1.00" d=" M 124.72 36.91 C 132.09 36.91 139.47 36.91 146.84 36.91 C 146.84 39.71 146.84 42.51 146.84 45.31 C 142.99 45.30 139.13 45.30 135.28 45.30 C 135.28 49.20 135.28 53.10 135.28 56.99 C 138.94 57.00 142.61 57.00 146.28 57.00 C 146.28 59.77 146.28 62.53 146.28 65.30 C 142.61 65.30 138.95 65.30 135.28 65.30 C 135.28 69.25 135.28 73.20 135.28 77.15 C 139.14 77.15 142.99 77.15 146.85 77.15 C 146.84 80.10 146.84 83.05 146.84 86.00 C 139.47 86.00 132.09 86.00 124.72 86.00 C 124.72 69.64 124.72 53.27 124.72 36.91 Z" />
<path fill="#224c8d" opacity="1.00" d=" M 150.57 36.91 C 159.45 36.99 168.34 36.74 177.21 37.06 C 177.19 39.97 177.18 42.89 177.19 45.80 C 174.52 45.83 171.85 45.86 169.19 45.86 C 169.19 59.22 169.17 72.58 169.19 85.94 C 165.65 86.01 162.11 86.01 158.57 86.00 C 158.57 72.62 158.58 59.23 158.57 45.85 C 155.90 45.85 153.23 45.85 150.56 45.85 C 150.57 42.87 150.57 39.89 150.57 36.91 Z" />
<path fill="#224c8d" opacity="1.00" d=" M 181.78 37.05 C 189.26 36.82 196.74 36.82 204.22 37.06 C 204.19 39.80 204.18 42.54 204.18 45.29 C 200.26 45.31 196.35 45.30 192.43 45.31 C 192.43 49.20 192.43 53.10 192.43 56.99 C 196.09 57.00 199.76 57.00 203.43 57.00 C 203.43 59.77 203.43 62.54 203.43 65.31 C 199.76 65.30 196.10 65.30 192.43 65.30 C 192.43 69.25 192.43 73.20 192.43 77.15 C 196.35 77.15 200.27 77.14 204.19 77.20 C 204.18 80.11 204.18 83.03 204.19 85.94 C 196.73 86.03 189.27 86.04 181.81 85.94 C 181.81 69.65 181.85 53.35 181.78 37.05 Z" />
<path fill="#224c8d" opacity="1.00" d=" M 245.41 36.91 C 248.88 36.91 252.36 36.91 255.84 36.91 C 255.84 50.25 255.85 63.59 255.83 76.93 C 259.70 77.02 263.56 77.00 267.43 77.00 C 267.43 80.00 267.43 83.00 267.43 86.00 C 260.09 86.00 252.74 86.00 245.40 85.99 C 245.41 69.63 245.40 53.27 245.41 36.91 Z" />
<path fill="#224c8d" opacity="1.00" d=" M 309.72 36.91 C 316.50 36.98 323.29 36.77 330.08 36.98 C 334.06 36.97 337.51 40.37 337.68 44.33 C 337.87 49.38 339.10 55.85 334.12 59.11 C 336.29 60.58 338.30 62.62 338.39 65.42 C 338.69 70.25 338.91 75.19 338.03 79.97 C 337.25 83.58 333.69 85.95 330.11 85.95 C 323.31 86.10 316.51 85.94 309.72 86.00 C 309.72 69.64 309.72 53.27 309.72 36.91 M 320.28 43.97 C 320.28 48.38 320.28 52.79 320.28 57.20 C 322.65 57.19 325.01 57.05 327.37 56.91 C 327.35 52.88 327.61 48.84 327.27 44.82 C 325.57 43.24 322.51 44.30 320.28 43.97 M 320.28 78.93 C 322.66 78.51 326.04 79.92 327.77 77.89 C 328.56 73.98 328.17 69.86 328.03 65.87 C 326.47 63.34 322.73 65.07 320.28 64.55 C 320.28 69.34 320.28 74.13 320.28 78.93 Z" />
<path fill="#224c8d" opacity="1.00" d=" M 56.01 61.86 C 58.13 59.71 61.25 60.32 63.98 60.25 C 76.34 60.38 88.70 60.16 101.06 60.33 C 103.68 59.94 103.84 63.17 103.78 65.00 C 103.64 73.66 103.97 82.33 103.63 90.98 C 103.63 93.44 100.72 93.13 99.01 93.21 C 86.00 93.10 73.00 93.20 59.99 93.15 C 58.44 93.23 56.25 92.91 56.22 90.93 C 55.87 81.25 56.35 71.54 56.01 61.86 M 58.58 62.66 C 58.57 72.11 58.57 81.55 58.57 91.00 C 72.85 91.01 87.13 91.00 101.42 91.00 C 101.41 81.55 101.43 72.11 101.41 62.66 C 87.13 62.64 72.85 62.64 58.58 62.66 Z" />
</g>
<g id="#6cb5e7ff">
<path fill="#6cb5e7" opacity="1.00" d=" M 51.86 13.97 C 62.13 15.92 71.84 21.40 77.98 29.99 C 81.73 34.90 83.78 40.80 85.31 46.73 C 82.21 43.38 78.87 40.12 74.69 38.17 C 71.59 36.42 67.96 35.85 64.90 34.08 C 62.30 26.46 58.86 18.57 51.86 13.97 Z" />
<path fill="#6cb5e7" opacity="1.00" d=" M 23.54 20.52 C 28.34 17.17 33.96 15.31 39.62 14.04 C 32.60 18.78 29.23 26.83 26.65 34.56 C 18.86 36.54 11.33 40.40 6.36 46.89 C 8.47 36.33 14.50 26.52 23.54 20.52 Z" />
<path fill="#6cb5e7" opacity="1.00" d=" M 29.35 33.75 C 32.01 25.93 36.09 17.01 44.78 14.59 C 44.86 20.35 44.80 26.10 44.83 31.86 C 39.65 32.26 34.46 32.73 29.35 33.75 Z" />
<path fill="#6cb5e7" opacity="1.00" d=" M 47.05 14.59 C 55.67 17.17 59.67 25.99 62.33 33.81 C 57.28 32.71 52.13 32.30 46.99 31.87 C 47.02 26.11 47.00 20.35 47.05 14.59 Z" />
<path fill="#6cb5e7" opacity="1.00" d=" M 28.63 36.47 C 33.88 34.93 39.38 34.74 44.79 34.14 C 44.82 40.11 44.84 46.08 44.80 52.05 C 38.83 52.07 32.86 52.07 26.89 52.05 C 26.82 46.80 27.65 41.61 28.63 36.47 Z" />
<path fill="#6cb5e7" opacity="1.00" d=" M 47.06 34.17 C 52.37 34.68 57.72 35.08 62.94 36.31 C 64.11 41.48 64.72 46.75 64.87 52.05 C 58.92 52.07 52.97 52.07 47.03 52.05 C 47.04 46.09 46.96 40.13 47.06 34.17 Z" />
<path fill="#6cb5e7" opacity="1.00" d=" M 7.10 52.01 C 9.55 43.49 18.34 39.50 26.10 37.03 C 25.25 42.00 24.61 47.00 24.51 52.05 C 18.70 52.06 12.90 52.10 7.10 52.01 Z" />
<path fill="#6cb5e7" opacity="1.00" d=" M 65.50 36.96 C 73.08 39.54 82.44 43.27 84.35 52.03 C 78.59 52.10 72.82 52.06 67.06 52.05 C 67.09 46.98 66.48 41.93 65.50 36.96 Z" />
<path fill="#6cb5e7" opacity="1.00" d=" M 7.11 54.43 C 12.92 54.37 18.72 54.41 24.52 54.40 C 24.59 59.46 25.29 64.47 26.08 69.45 C 18.31 67.10 9.37 63.02 7.11 54.43 Z" />
<path fill="#6cb5e7" opacity="1.00" d=" M 26.90 54.42 C 32.87 54.39 38.84 54.40 44.81 54.40 C 44.84 60.36 44.81 66.31 44.82 72.26 C 39.34 71.92 33.68 71.85 28.51 69.81 C 27.68 64.72 26.77 59.61 26.90 54.42 Z" />
<path fill="#6cb5e7" opacity="1.00" d=" M 47.03 54.39 C 52.95 54.41 58.86 54.38 64.78 54.42 C 64.79 54.99 64.82 56.13 64.83 56.70 C 60.99 56.83 57.08 56.36 53.28 57.10 C 51.20 61.66 52.90 67.13 52.39 72.04 C 50.61 72.10 48.83 72.16 47.05 72.22 C 46.99 66.28 47.02 60.34 47.03 54.39 Z" />
<path fill="#6cb5e7" opacity="1.00" d=" M 66.97 54.42 C 72.67 54.39 78.38 54.40 84.08 54.41 C 84.04 54.98 83.96 56.13 83.92 56.70 C 78.27 56.76 72.61 56.74 66.96 56.72 C 66.96 56.15 66.96 54.99 66.97 54.42 Z" />
<path fill="#6cb5e7" opacity="1.00" d=" M 54.80 59.05 C 71.63 59.03 88.47 59.06 105.30 59.06 C 105.35 70.94 105.30 82.83 105.33 94.71 C 88.49 94.72 71.65 94.72 54.81 94.72 C 54.76 82.83 54.78 70.94 54.80 59.05 M 56.01 61.86 C 56.35 71.54 55.87 81.25 56.22 90.93 C 56.25 92.91 58.44 93.23 59.99 93.15 C 73.00 93.20 86.00 93.10 99.01 93.21 C 100.72 93.13 103.63 93.44 103.63 90.98 C 103.97 82.33 103.64 73.66 103.78 65.00 C 103.84 63.17 103.68 59.94 101.06 60.33 C 88.70 60.16 76.34 60.38 63.98 60.25 C 61.25 60.32 58.13 59.71 56.01 61.86 Z" />
<path fill="#6cb5e7" opacity="1.00" d=" M 6.39 59.60 C 11.35 66.22 19.00 69.92 26.78 72.17 C 29.18 79.93 32.76 87.82 39.68 92.57 C 29.43 90.52 19.69 85.05 13.60 76.42 C 9.86 71.48 7.77 65.57 6.39 59.60 Z" />
<path fill="#6cb5e7" opacity="1.00" d=" M 29.43 72.86 C 34.52 73.75 39.66 74.32 44.82 74.59 C 44.81 80.33 44.86 86.07 44.76 91.82 C 36.00 89.67 32.06 80.59 29.43 72.86 Z" />
<path fill="#6cb5e7" opacity="1.00" d=" M 47.02 74.58 C 48.80 74.46 50.57 74.34 52.34 74.21 C 52.41 79.27 52.35 84.34 52.43 89.40 C 50.66 90.24 48.88 91.06 47.10 91.85 C 46.92 86.10 46.99 80.34 47.02 74.58 Z" />
<path fill="#6cb5e7" opacity="1.00" d=" M 48.68 101.23 C 69.40 100.89 90.12 101.23 110.83 101.05 C 110.87 103.32 109.69 105.88 107.05 105.70 C 90.37 105.87 73.67 105.65 56.99 105.79 C 55.14 105.76 53.25 105.88 51.44 105.44 C 49.63 104.87 49.45 102.68 48.68 101.23 Z" />
</g>
<g id="#689acaff">
<path fill="#689aca" opacity="1.00" d=" M 62.02 98.78 C 62.18 98.33 62.51 97.44 62.67 96.99 C 65.78 96.98 68.89 96.98 72.01 96.99 C 72.01 97.49 72.01 98.48 72.01 98.98 C 68.68 99.06 65.35 98.99 62.02 98.78 Z" />
<path fill="#689aca" opacity="1.00" d=" M 88.58 97.04 C 92.19 96.96 95.81 96.96 99.42 97.04 C 99.21 97.47 98.78 98.33 98.57 98.76 C 95.55 99.22 92.44 99.22 89.43 98.71 C 89.22 98.29 88.79 97.46 88.58 97.04 Z" />
</g>
</svg>
